<svg width="48" height="48" viewBox="0 0 48 48" fill="none" xmlns="http://www.w3.org/2000/svg">
<mask id="mask0" mask-type="alpha" maskUnits="userSpaceOnUse" x="0" y="0" width="48" height="48">
<path fill-rule="evenodd" clip-rule="evenodd" d="M35.5899 30.1432C38.3242 31.0469 41.2097 31.5065 44.1485 31.5065C46.2721 31.5065 48 33.2343 48.0001 35.358V44.1483C48.0001 46.2721 46.2723 48 44.1485 48C19.8047 48 0 28.1954 0 3.8515C0 1.72787 1.72787 0 3.8515 0H12.6666C14.7903 0 16.5183 1.72787 16.5181 3.85175C16.5181 6.79175 16.9791 9.67586 17.8866 12.4246C18.3281 13.8309 17.9596 15.3297 16.9323 16.3557L12.9779 21.6121C16.2734 27.8242 20.1289 31.6785 26.388 35.0196L31.7851 30.9453C32.6745 30.0391 34.2267 29.6784 35.5899 30.1432ZM44.1485 45.3333C44.8021 45.3333 45.3333 44.8021 45.3333 44.1485V35.3581C45.3333 34.7045 44.8021 34.1733 44.1485 34.1733C40.9245 34.1733 37.7591 33.668 34.7397 32.6706C34.3151 32.5261 33.845 32.6381 33.5313 32.9519L27.3216 37.6563C26.9127 37.9649 26.3607 38.0143 25.9101 37.7787C18.5053 33.9843 13.9596 29.4387 10.2188 22.0859C9.98829 21.6315 10.0365 21.0859 10.3437 20.6784L14.9271 14.6083C15.375 14.142 15.487 13.6838 15.349 13.241C14.3581 10.2423 13.8516 7.07687 13.8516 3.85162C13.8516 3.198 13.3203 2.66675 12.6668 2.66675H3.85162C3.198 2.66675 2.66675 3.198 2.66675 3.85162C2.66675 26.7253 21.2747 45.3333 44.1485 45.3333Z" fill="white"/>
</mask>
<g mask="url(#mask0)">
<rect width="48" height="48" fill="#5F9FFE"/>
</g>
</svg>
