<svg width="52" height="52" viewBox="0 0 52 52" fill="none" xmlns="http://www.w3.org/2000/svg">
<path d="M47.0317 17.8592L52 16.0005L26.3249 8.02136L0 16.7966L9.87002 20.0867V34.8362L10.0715 35.1725C10.2291 35.4357 14.0796 41.6146 26.437 41.6146C38.9959 41.6146 41.3924 35.1871 41.4866 34.9125L41.5646 34.6867V19.9031L44.2031 18.9169V37.3643H42.645V43.9786H48.5914V37.3643H47.0349V17.8592H47.0317ZM38.736 34.1424C38.2697 35.0441 35.766 38.7827 26.437 38.7827C17.1487 38.7827 13.5418 35.0636 12.6986 33.9946V21.0291L26.3672 25.5865L38.736 20.9625V34.1424ZM26.3119 22.584L8.9472 16.7966L26.3558 10.9946L43.2624 16.2491L26.3119 22.584Z" fill="#5F9FFE"/>
</svg>
