<svg width="24" height="16" viewBox="0 0 24 16" fill="none" xmlns="http://www.w3.org/2000/svg">
  <path d="M23.8535 7.6465L16.3535 0.146496C16.1582 -0.0488321 15.8417 -0.0488321 15.6465 0.146496C15.4512 0.341825 15.4512 0.658226 15.6465 0.85351L22.2931 7.50002H0.500016C0.223641 7.50002 0 7.72366 0 8.00003C0 8.2764 0.223641 8.50005 0.500016 8.50005H22.2931L15.6465 15.1465C15.4512 15.3419 15.4512 15.6582 15.6465 15.8535C15.7441 15.9511 15.8721 16 16 16C16.128 16 16.2559 15.9511 16.3536 15.8535L23.8536 8.35352C24.0489 8.15824 24.0489 7.84183 23.8535 7.6465Z" fill="white"/>
  </svg>
