<svg width="48" height="48" viewBox="0 0 48 48" fill="none" xmlns="http://www.w3.org/2000/svg">
<mask id="mask0" mask-type="alpha" maskUnits="userSpaceOnUse" x="0" y="0" width="48" height="48">
<path fill-rule="evenodd" clip-rule="evenodd" d="M21.1382 0C9.48286 0 0 9.48286 0 21.1382C0 32.7942 9.48286 42.2764 21.1382 42.2764C26.2652 42.2764 30.9716 40.4418 34.6355 37.3946L44.6693 47.4283C45.0504 47.8094 45.5493 48 46.0488 48C46.5476 48 47.0471 47.8094 47.4283 47.4283C48.1906 46.6667 48.1906 45.4309 47.4283 44.6693L37.3946 34.6355C40.4418 30.9716 42.2764 26.2652 42.2764 21.1382C42.2764 9.48286 32.7942 0 21.1382 0ZM21.1382 38.3741C11.6345 38.3741 3.90244 30.642 3.90244 21.1383C3.90244 11.6346 11.6345 3.90244 21.1382 3.90244C30.6419 3.90244 38.374 11.6345 38.374 21.1382C38.374 30.6419 30.6419 38.3741 21.1382 38.3741Z" fill="white"/>
</mask>
<g mask="url(#mask0)">
<rect width="48" height="48" fill="#5F9FFE"/>
</g>
</svg>
