<svg width="24" height="24" viewBox="0 0 24 24" fill="none" xmlns="http://www.w3.org/2000/svg">
<mask id="mask0" mask-type="alpha" maskUnits="userSpaceOnUse" x="1" y="0" width="22" height="24">
<path fill-rule="evenodd" clip-rule="evenodd" d="M5.67188 6.32812C5.67188 2.8388 8.51067 0 12 0C15.4893 0 18.3281 2.8388 18.3281 6.32812C18.3281 9.81745 15.4893 12.6562 12 12.6562C8.51067 12.6562 5.67188 9.81745 5.67188 6.32812ZM13.4062 14.0625C15.8442 14.0625 18.1409 15.0313 19.8734 16.7904C21.5974 18.5409 22.5469 20.8515 22.5469 23.2969C22.5469 23.6852 22.2321 24 21.8438 24H2.15625C1.76794 24 1.45312 23.6852 1.45312 23.2969C1.45312 20.8515 2.40258 18.5409 4.12659 16.7904C5.85909 15.0313 8.15588 14.0625 10.5938 14.0625H13.4062Z" fill="white"/>
</mask>
<g mask="url(#mask0)">
<rect width="24" height="24" fill="#5F9FFE"/>
</g>
</svg>
