<svg width="24" height="24" viewBox="0 0 24 24" fill="none" xmlns="http://www.w3.org/2000/svg">
<mask id="mask0" mask-type="alpha" maskUnits="userSpaceOnUse" x="1" y="0" width="22" height="24">
<path fill-rule="evenodd" clip-rule="evenodd" d="M12 0C8.51067 0 5.67187 2.83879 5.67187 6.32813C5.67187 9.81745 8.51067 12.6563 12 12.6563C15.4894 12.6563 18.3281 9.81745 18.3281 6.32813C18.3281 2.83879 15.4894 0 12 0ZM12 11.25C9.28608 11.25 7.07812 9.04205 7.07812 6.32813C7.07812 3.61421 9.28608 1.40626 12 1.40626C14.7139 1.40626 16.9219 3.61421 16.9219 6.32813C16.9219 9.04205 14.7139 11.25 12 11.25ZM19.8734 16.7904C18.1409 15.0313 15.8442 14.0626 13.4063 14.0626H10.5937C8.15587 14.0626 5.85909 15.0313 4.12659 16.7904C2.40258 18.5408 1.45312 20.8516 1.45312 23.2969C1.45312 23.6852 1.76793 24 2.15625 24H21.8437C22.232 24 22.5469 23.6852 22.5469 23.2969C22.5469 20.8516 21.5975 18.5408 19.8734 16.7904ZM2.89031 22.5937C3.24258 18.6054 6.56301 15.4687 10.5937 15.4687H13.4063C17.437 15.4687 20.7575 18.6054 21.1097 22.5937H2.89031Z" fill="white"/>
</mask>
<g mask="url(#mask0)">
<rect width="24" height="24" fill="#5F9FFE"/>
</g>
</svg>
