<svg width="39" height="39" viewBox="0 0 39 39" fill="none" xmlns="http://www.w3.org/2000/svg">
<g clip-path="url(#clip0)">
<path d="M30.9384 1.83564H26.246V0H12.7541V1.83564H8.06163C5.94472 1.83564 4.22241 3.55784 4.22241 5.67486V35.1609C4.22241 37.2778 5.94462 39.0001 8.06163 39.0001H30.9384C33.0553 39.0001 34.7776 37.2779 34.7776 35.1609V5.67475C34.7776 3.55785 33.0553 1.83564 30.9384 1.83564ZM14.3413 1.58728H24.6587V3.67118H14.3413V1.58728ZM33.1904 35.1608C33.1904 36.4025 32.1802 37.4127 30.9384 37.4127H8.06163C6.81995 37.4127 5.8097 36.4026 5.8097 35.1608V5.67475C5.8097 4.43307 6.81984 3.42282 8.06163 3.42282H12.7541V5.25846H26.246V3.42293H30.9384C32.1801 3.42293 33.1904 4.43307 33.1904 5.67486V35.1608V35.1608Z" fill="#5F9FFE"/>
<path d="M26.3991 17.9213L25.5737 19.1752C25.4562 19.3536 25.278 19.3743 25.2068 19.375C25.1337 19.3751 24.9571 19.3579 24.8365 19.1817L24.8135 19.1482C24.3957 18.5376 23.7061 18.2101 22.969 18.2709C22.2317 18.3322 21.6057 18.7695 21.2945 19.4406L20.8536 20.391C20.7347 20.6477 20.5035 20.6552 20.4098 20.6463C20.316 20.6375 20.0903 20.5875 20.0207 20.3134L19.0613 16.5312C18.8286 15.6137 18.0385 14.9995 17.0933 14.9995C17.0895 14.9995 17.0858 14.9995 17.0819 14.9995C16.1317 15.0043 15.3426 15.6281 15.1186 16.5516L14.2532 20.1179C14.1853 20.3979 13.9555 20.4472 13.86 20.4555C13.7646 20.4635 13.5296 20.4545 13.4147 20.1902L12.5616 18.2282C12.239 17.4862 11.5078 17.0068 10.6988 17.0068H8.41113V18.5941H10.6988C10.8757 18.5941 11.0354 18.6989 11.1059 18.8611L11.959 20.8231C12.3128 21.6366 13.1119 22.1128 13.9964 22.0368C14.8803 21.9605 15.5865 21.3542 15.7956 20.4921L16.661 16.9258C16.7349 16.6212 16.9856 16.5871 17.0901 16.5865C17.1986 16.5869 17.4456 16.6175 17.5227 16.9213L18.482 20.7035C18.6962 21.5478 19.395 22.1457 20.2624 22.2266C20.3285 22.2328 20.394 22.2358 20.4589 22.2358C21.2485 22.2358 21.955 21.7889 22.2935 21.0587L22.7344 20.1083C22.8325 19.8969 23.0229 19.8592 23.1003 19.8526C23.1773 19.8467 23.3717 19.852 23.5034 20.0444L23.5263 20.0779C23.9058 20.6325 24.5314 20.9621 25.2025 20.962C25.2086 20.962 25.2148 20.962 25.2208 20.962C25.8989 20.956 26.5264 20.6142 26.8992 20.0478L27.7247 18.7939C27.807 18.6688 27.9456 18.5941 28.0954 18.5941H30.5888V17.0068H28.0954C27.4102 17.007 26.7759 17.3488 26.3991 17.9213Z" fill="#5F9FFE"/>
<path d="M17.3727 28.7592H8.41113V30.3464H17.3727V28.7592Z" fill="#5F9FFE"/>
<path d="M26.3342 32.6391H8.41113V34.2264H26.3342V32.6391Z" fill="#5F9FFE"/>
</g>
<defs>
<clipPath id="clip0">
<rect width="39" height="39" fill="white"/>
</clipPath>
</defs>
</svg>
