<svg width="24" height="24" viewBox="0 0 24 24" fill="none" xmlns="http://www.w3.org/2000/svg">
<mask id="mask0" mask-type="alpha" maskUnits="userSpaceOnUse" x="0" y="3" width="24" height="18">
<path fill-rule="evenodd" clip-rule="evenodd" d="M21.75 3H2.25001C1.00928 3 0 4.00928 0 5.25001V18.75C0 19.9908 1.00928 21 2.25001 21H21.75C22.9907 21 24 19.9908 24 18.75V5.25001C24 4.00928 22.9907 3 21.75 3ZM21.75 4.49999C21.8519 4.49999 21.9488 4.52113 22.0374 4.55806L12 13.2576L1.9625 4.55806C2.05112 4.52118 2.14806 4.49999 2.24996 4.49999H21.75ZM2.25001 19.5H21.75C22.1638 19.5 22.5 19.1639 22.5 18.75V6.14281L12.4915 14.8169C12.35 14.9393 12.1751 15 12 15C11.825 15 11.6499 14.9392 11.5085 14.8169L1.49999 6.14281V18.75C1.49999 19.1639 1.8362 19.5 2.25001 19.5Z" fill="white"/>
</mask>
<g mask="url(#mask0)">
<rect width="24" height="24" fill="#5F9FFE"/>
</g>
</svg>
