<svg width="24" height="24" viewBox="0 0 24 24" fill="none" xmlns="http://www.w3.org/2000/svg">
<mask id="mask0" mask-type="alpha" maskUnits="userSpaceOnUse" x="0" y="4" width="24" height="16">
<path d="M23.8535 11.6465L16.3535 4.14645C16.1582 3.95112 15.8417 3.95112 15.6465 4.14645C15.4512 4.34178 15.4512 4.65818 15.6465 4.85347L22.2931 11.5H0.500016C0.223641 11.5 0 11.7236 0 12C0 12.2764 0.223641 12.5 0.500016 12.5H22.2931L15.6465 19.1464C15.4512 19.3418 15.4512 19.6582 15.6465 19.8535C15.7441 19.9511 15.8721 20 16 20C16.128 20 16.2559 19.9511 16.3536 19.8535L23.8536 12.3535C24.0489 12.1582 24.0489 11.8418 23.8535 11.6465Z" fill="white"/>
</mask>
<g mask="url(#mask0)">
<rect width="24" height="24" fill="#5F9FFE"/>
</g>
</svg>
