<svg width="24" height="24" viewBox="0 0 24 24" fill="none" xmlns="http://www.w3.org/2000/svg">
<mask id="mask0" mask-type="alpha" maskUnits="userSpaceOnUse" x="0" y="0" width="24" height="23">
<path d="M23.326 9.07622C23.1787 8.62034 22.7743 8.29655 22.2959 8.25343L15.7978 7.6634L13.2283 1.64916C13.0388 1.20839 12.6073 0.923077 12.1279 0.923077C11.6485 0.923077 11.217 1.20839 11.0276 1.65019L8.458 7.6634L1.95885 8.25343C1.48132 8.29758 1.078 8.62034 0.929767 9.07622C0.781524 9.5321 0.918426 10.0321 1.27966 10.3473L6.19147 14.655L4.7431 21.0352C4.63711 21.5043 4.81919 21.9892 5.20842 22.2705C5.41764 22.4217 5.66242 22.4986 5.90925 22.4986C6.12207 22.4986 6.33318 22.4413 6.52265 22.3278L12.1279 18.9778L17.7311 22.3278C18.1411 22.5746 18.658 22.5521 19.0463 22.2705C19.4358 21.9883 19.6176 21.5033 19.5117 21.0352L18.0633 14.655L22.9751 10.3482C23.3363 10.0321 23.4743 9.53297 23.326 9.07622Z" fill="white"/>
</mask>
<g mask="url(#mask0)">
<rect width="24" height="24" fill="#5F9FFE"/>
</g>
</svg>
