<svg width="70" height="38" viewBox="0 0 70 38" fill="none" xmlns="http://www.w3.org/2000/svg">
<path d="M19 38C29.4934 38 38 29.4934 38 19C38 8.50659 29.4934 0 19 0C8.50659 0 0 8.50659 0 19C0 29.4934 8.50659 38 19 38Z" fill="#5F9FFE"/>
<path d="M70 19C70 29.4934 61.4934 38 51 38C40.5066 38 32 29.4934 32 19C32 8.50659 40.5066 0 51 0C61.4934 0 70 8.50659 70 19Z" fill="#2667C9"/>
<path d="M17.5156 21.375H19.7656L18.6406 14.625L17.5156 21.375ZM14.1406 27L17.5156 11.25H19.7656L23.1406 27H20.8906L20.0469 23.0625H17.2344L16.3906 27H14.1406Z" fill="white"/>
<path d="M50.375 18H51.5C53.375 18 54.3125 17.0625 54.3125 15.1875C54.3125 14.877 54.2744 14.6045 54.1982 14.3701C54.1221 14.1299 54.0312 13.9307 53.9258 13.7725C53.8203 13.6143 53.6592 13.4824 53.4424 13.377C53.2314 13.2656 53.0381 13.1807 52.8623 13.1221C52.6865 13.0635 52.4346 13.0225 52.1064 12.999C51.7842 12.9697 51.5146 12.9521 51.2979 12.9463C51.0811 12.9404 50.7734 12.9375 50.375 12.9375V18ZM50.375 25.3125H51.5C52.4727 25.3125 53.1846 25.0898 53.6357 24.6445C54.0869 24.1934 54.3125 23.4785 54.3125 22.5C54.3125 21.5215 54.0869 20.8096 53.6357 20.3643C53.1846 19.9131 52.4727 19.6875 51.5 19.6875H50.375V25.3125ZM48.125 27V11.25H51.5C52.2266 11.25 52.877 11.3262 53.4512 11.4785C54.0254 11.6309 54.5264 11.8623 54.9541 12.1729C55.3877 12.4834 55.7188 12.8936 55.9473 13.4033C56.1816 13.9131 56.2988 14.5078 56.2988 15.1875C56.2988 16.1719 56.0908 16.9219 55.6748 17.4375C55.2588 17.9473 54.6172 18.3223 53.75 18.5625C54.6875 18.873 55.3906 19.3301 55.8594 19.9336C56.3281 20.5312 56.5625 21.3867 56.5625 22.5C56.5625 23.8887 56.1582 24.9873 55.3496 25.7959C54.5469 26.5986 53.4512 27 52.0625 27H48.125Z" fill="white"/>
</svg>
